<svg width="220" height="60" viewBox="0 0 240 64" fill="none" xmlns="http://www.w3.org/2000/svg">
    <defs>
        <linearGradient id="brandGradient" x1="0" y1="0" x2="1" y2="1">
            <stop offset="0" stop-color="#ff8a4c" />
            <stop offset="1" stop-color="#ff3d6a" />
        </linearGradient>
        <linearGradient id="accentGradient" x1="0" y1="0" x2="1" y2="1">
            <stop offset="0" stop-color="#ffe08a" />
            <stop offset="1" stop-color="#ff6b4a" />
        </linearGradient>
        <filter id="softShadow" x="-20%" y="-20%" width="140%" height="140%">
            <feDropShadow dx="0" dy="3" stdDeviation="3" flood-color="#000000" flood-opacity="0.16" />
        </filter>
    </defs>

    <g filter="url(#softShadow)">
        <rect x="10" y="8" width="48" height="48" rx="14" fill="url(#brandGradient)" />
        <path d="M36 18c0-3 2.2-5 5.2-5 3 0 5.4 2.2 5.4 5.1 0 2.2-1.2 4-3.8 5.3l-3.4 1.7c-1.1 0.6-1.6 1.3-1.6 2.6v1.5"
            stroke="white" stroke-width="2.4" stroke-linecap="round" stroke-linejoin="round" />
        <path d="M20 36h32l-3.4 10H23.4L20 36z" fill="url(#accentGradient)" />
        <circle cx="26" cy="24" r="3" fill="white" fill-opacity="0.14" />
        <circle cx="46" cy="44" r="3" fill="white" fill-opacity="0.2" />
    </g>

    <text x="74" y="30" font-family="Poppins, Inter, Arial, sans-serif" font-size="22" font-weight="800"
        fill="white">Beauty Shop</text>
    <text x="74" y="48" font-family="Inter, Arial, sans-serif" font-size="12" font-weight="600" fill="white">Everyday
        elegance</text>
</svg>